<svg width="75" height="79" viewBox="0 0 75 79" fill="none" xmlns="http://www.w3.org/2000/svg">
<path d="M73.4375 48.4375L66.7188 44.6875C67.5 40.9375 67.5 37.3438 66.7188 33.5938L73.4375 29.8438C74.2188 29.375 74.5313 28.4375 74.2188 27.6562C72.5 22.0312 69.5313 17.0312 65.7813 12.8125C65.1563 12.1875 64.2188 12.0312 63.4375 12.5L56.7188 16.25C53.9063 13.9062 50.7813 12.0312 47.3438 10.7812V3.125C47.3438 2.34375 46.7188 1.5625 45.7813 1.40625C40 0 34.2188 0.15625 28.75 1.40625C27.8125 1.5625 27.3438 2.34375 27.3438 3.125V10.7812C23.75 12.0312 20.625 13.9062 17.8125 16.4062L11.0938 12.5C10.3125 12.0312 9.37502 12.1875 8.75002 12.8125C5.00002 17.0312 2.03127 22.0312 0.312523 27.6562C2.28882e-05 28.4375 0.312523 29.375 1.09377 29.8438L7.81252 33.5938C7.18752 37.3438 7.18752 40.9375 7.81252 44.6875L1.09377 48.4375C0.312523 48.9062 2.28882e-05 49.8438 0.312523 50.625C2.03127 56.25 5.00002 61.25 8.75002 65.4688C9.37502 66.0938 10.3125 66.25 11.0938 65.7812L17.8125 62.0312C20.625 64.375 23.75 66.25 27.3438 67.5V75.1562C27.3438 75.9375 27.9688 76.7188 28.75 77.0312C34.5313 78.2812 40.3125 78.125 45.7813 77.0312C46.7188 76.7188 47.3438 75.9375 47.3438 75.1562V67.5C50.7813 66.25 53.9063 64.375 56.7188 62.0312L63.4375 65.7812C64.2188 66.25 65.1563 66.0938 65.7813 65.4688C69.6875 61.25 72.5 56.25 74.375 50.625C74.5313 49.8438 74.2188 48.9062 73.4375 48.4375ZM37.3438 51.5625C30.3125 51.5625 24.8438 46.0938 24.8438 39.0625C24.8438 32.1875 30.3125 26.5625 37.3438 26.5625C44.2188 26.5625 49.8438 32.1875 49.8438 39.0625C49.8438 46.0938 44.2188 51.5625 37.3438 51.5625Z" fill="#D52349"/>
</svg>
